<svg width="24" height="24" viewBox="0 0 24 24" fill="none" xmlns="http://www.w3.org/2000/svg">
<path id="Union" fill-rule="evenodd" clip-rule="evenodd" d="M9 2C12.866 2 16 5.13401 16 9C16 12.866 12.866 16 9 16C8.15977 16 7.35623 15.8524 6.61247 15.5826C6.28463 15.4636 5.92007 15.437 5.56448 15.5244C4.60939 15.759 3.63437 15.9078 2.65106 15.9686C3.02083 14.9944 3.14858 13.9412 3.01859 12.9008C2.98967 12.6694 2.91398 12.4664 2.82407 12.2985C2.29846 11.3167 2 10.1947 2 9C2 5.13401 5.13401 2 9 2ZM18 9C18 4.02944 13.9706 0 9 0C4.02944 0 0 4.02944 0 9C0 10.5167 0.375978 11.9485 1.04062 13.2044C1.14435 14.1303 0.952122 15.0682 0.487331 15.8816L0.446316 15.9533C-0.0748005 16.8653 0.583683 18 1.63403 18C3.10189 18 4.56133 17.8251 5.98192 17.4812C6.92665 17.8174 7.94307 18 9 18C13.9706 18 18 13.9706 18 9ZM20.3552 8.25812C19.9331 8.61423 19.8795 9.24513 20.2356 9.66727C21.3371 10.973 22 12.6578 22 14.5C22 15.7826 21.6789 16.9872 21.1135 18.0408C21.0228 18.2097 20.9476 18.4124 20.9185 18.6425C20.7755 19.7732 20.9218 20.9185 21.3392 21.9723C20.2529 21.9111 19.1756 21.7493 18.1212 21.4894C17.7653 21.4017 17.3998 21.4281 17.0708 21.5481C16.2702 21.8402 15.4049 22 14.5 22C12.6578 22 10.973 21.3371 9.66727 20.2356C9.24512 19.8795 8.61423 19.9331 8.25812 20.3552C7.90201 20.7774 7.95555 21.4083 8.3777 21.7644C10.0307 23.1588 12.1684 24 14.5 24C15.6223 24 16.7012 23.805 17.7033 23.4461C19.2136 23.8133 20.7654 24 22.3263 24C23.3943 24 24.0639 22.8462 23.534 21.919L23.534 21.9189L23.4904 21.8427C22.988 20.9635 22.7814 19.9491 22.896 18.9484C23.601 17.6203 24 16.1053 24 14.5C24 12.1684 23.1587 10.0307 21.7644 8.3777C21.4083 7.95555 20.7774 7.90202 20.3552 8.25812ZM5 10C5.55228 10 6 9.55229 6 9C6 8.44772 5.55228 8 5 8C4.44772 8 4 8.44772 4 9C4 9.55229 4.44772 10 5 10ZM10 9C10 9.55229 9.55229 10 9 10C8.44771 10 8 9.55229 8 9C8 8.44772 8.44771 8 9 8C9.55229 8 10 8.44772 10 9ZM13 10C13.5523 10 14 9.55229 14 9C14 8.44772 13.5523 8 13 8C12.4477 8 12 8.44772 12 9C12 9.55229 12.4477 10 13 10Z" fill="#37352F"/>
</svg>
